<?xml version="1.0" standalone="no"?>
<!DOCTYPE svg PUBLIC "-//W3C//DTD SVG 20010904//EN"
 "http://www.w3.org/TR/2001/REC-SVG-20010904/DTD/svg10.dtd">
<svg version="1.0" xmlns="http://www.w3.org/2000/svg"
 width="2000.000000pt" height="2000.000000pt" viewBox="0 0 2000.000000 2000.000000"
 preserveAspectRatio="xMidYMid meet">
<metadata>
Created by potrace 1.14, written by Peter Selinger 2001-2017
</metadata>
<g transform="translate(0.000000,2000.000000) scale(0.100000,-0.100000)"
fill="#000000" stroke="none">
<path d="M10313 16174 c-71 -18 -110 -39 -395 -213 -139 -85 -347 -211 -463
-281 -115 -70 -327 -198 -470 -285 -579 -352 -824 -500 -892 -541 -40 -24
-101 -61 -135 -82 -35 -22 -180 -111 -323 -197 -281 -171 -281 -171 -380 -230
-37 -22 -82 -49 -100 -60 -31 -19 -105 -64 -425 -258 -74 -46 -216 -132 -315
-192 -763 -462 -870 -527 -880 -536 -12 -12 -48 -12 -60 0 -8 7 -1060 610
-1253 718 -23 13 -93 53 -154 89 -61 35 -112 64 -113 64 -2 0 -36 19 -77 43
-40 24 -93 55 -118 69 -25 14 -251 143 -502 286 -251 144 -474 271 -495 283
-21 12 -99 56 -173 99 -74 43 -153 87 -174 99 -21 12 -116 67 -211 121 -95 54
-187 107 -206 118 -19 10 -156 89 -305 174 -150 86 -293 163 -318 173 -47 18
-154 24 -214 13 -107 -21 -220 -113 -273 -224 -74 -157 -36 -343 94 -461 26
-24 2402 -1391 2744 -1579 27 -15 53 -30 58 -34 6 -4 30 -18 55 -32 25 -14
251 -143 502 -287 252 -143 479 -273 505 -288 27 -14 65 -37 85 -50 21 -12 40
-23 43 -23 2 0 34 -18 70 -40 36 -22 91 -54 123 -71 l57 -30 1 -2608 0 -2608
-90 -61 c-50 -33 -300 -198 -555 -367 -255 -168 -556 -368 -670 -443 -113 -75
-210 -139 -216 -142 -5 -3 -176 -116 -380 -251 -203 -135 -509 -338 -680 -451
-170 -112 -465 -307 -655 -433 -190 -126 -489 -324 -665 -440 -176 -116 -336
-229 -357 -250 -70 -72 -106 -170 -104 -275 3 -97 17 -145 65 -217 98 -145
288 -212 451 -158 43 14 180 99 378 234 29 20 61 41 70 46 9 6 98 64 197 129
185 123 641 425 1290 854 204 135 388 256 409 271 21 14 46 31 55 36 9 6 90
59 181 119 523 347 876 580 912 602 23 15 46 31 52 36 6 5 171 114 366 243
l355 234 30 -19 c33 -21 554 -339 583 -355 9 -5 124 -75 255 -155 130 -80 245
-149 255 -155 9 -5 146 -89 305 -185 158 -96 295 -179 305 -185 10 -5 107 -64
215 -130 109 -66 210 -127 225 -136 15 -9 88 -53 162 -99 74 -45 149 -90 165
-100 17 -10 91 -55 165 -100 74 -45 151 -91 170 -102 19 -11 54 -33 78 -49 24
-16 45 -29 48 -29 2 0 23 -12 47 -27 49 -31 1407 -855 1514 -919 39 -23 93
-50 120 -59 65 -22 174 -22 243 2 49 16 302 165 800 471 85 52 170 104 189
114 19 11 59 35 88 54 29 19 55 34 58 34 3 0 31 17 62 37 32 21 67 43 78 49
11 6 112 67 225 136 113 68 414 252 670 407 256 155 472 287 480 292 132 80
904 547 930 562 19 11 54 32 77 48 23 16 43 29 46 29 2 0 121 71 263 158 319
194 543 330 569 345 11 7 42 26 70 42 27 17 59 36 70 42 273 161 335 227 365
383 7 34 10 1013 10 2850 l0 2797 358 236 c196 130 364 241 372 247 22 15 893
592 1110 735 102 67 365 241 585 387 220 145 541 358 712 471 267 177 319 216
358 265 25 31 45 60 45 64 0 4 5 19 12 35 19 47 20 56 24 137 11 308 -329 503
-600 344 -28 -17 -86 -55 -129 -84 -43 -30 -82 -54 -87 -54 -5 0 -10 -3 -12
-7 -3 -7 -228 -161 -253 -173 -6 -3 -102 -66 -215 -141 -284 -188 -987 -654
-1335 -884 -719 -475 -963 -637 -1145 -758 -107 -72 -200 -130 -206 -130 -11
0 -62 30 -759 453 -247 150 -574 348 -725 440 -151 92 -358 218 -460 280 -102
62 -194 118 -205 124 -11 6 -31 19 -45 27 -14 9 -99 61 -190 116 -91 55 -290
176 -443 269 -152 93 -290 176 -305 185 -15 9 -344 209 -732 444 -388 236
-725 437 -749 448 -72 32 -164 40 -238 21z m167 -1968 c19 -2 90 -7 158 -11
68 -3 131 -8 140 -10 9 -1 62 -6 116 -10 55 -4 107 -8 115 -10 9 -1 50 -6 91
-10 41 -3 86 -8 100 -10 14 -2 54 -6 90 -10 76 -8 77 -8 240 -30 69 -9 136
-18 149 -20 13 -2 45 -7 70 -11 25 -3 57 -7 71 -9 14 -2 63 -9 110 -15 46 -6
87 -13 90 -15 3 -1 36 -6 73 -10 82 -8 206 -39 264 -65 252 -117 417 -380 407
-650 -2 -72 -12 -182 -19 -220 -3 -14 -7 -51 -10 -83 -2 -32 -7 -78 -10 -103
-8 -69 -14 -124 -20 -189 -6 -61 -21 -163 -29 -200 -45 -197 -200 -381 -393
-467 -102 -45 -171 -57 -308 -53 -71 2 -143 6 -160 9 -16 3 -73 10 -125 16
-52 6 -111 13 -130 16 -19 3 -62 7 -95 10 -33 2 -71 6 -85 9 -32 6 -119 15
-290 30 -41 4 -82 9 -91 10 -8 2 -55 6 -105 10 -49 3 -100 8 -114 10 -14 3
-65 7 -115 10 -49 4 -103 8 -120 10 -201 24 -700 24 -840 0 -236 -41 -365
-100 -411 -186 -24 -47 -36 -121 -36 -224 1 -134 8 -191 34 -258 13 -33 109
-82 278 -141 58 -21 116 -41 130 -46 86 -31 531 -150 650 -174 8 -2 29 -6 45
-10 17 -4 48 -11 70 -16 63 -14 367 -90 400 -100 598 -181 915 -322 1230 -549
326 -234 552 -549 680 -951 33 -104 49 -162 59 -210 3 -14 12 -59 20 -100 13
-68 20 -114 32 -220 23 -209 23 -557 -1 -785 -12 -120 -17 -154 -40 -295 -27
-159 -95 -399 -160 -561 -267 -664 -768 -1129 -1470 -1364 -173 -58 -442 -117
-640 -140 -27 -4 -61 -8 -75 -10 -183 -26 -795 -26 -1100 0 -25 2 -79 7 -120
10 -74 5 -133 11 -220 20 -25 3 -70 7 -100 10 -51 5 -117 12 -180 20 -14 2
-54 7 -90 10 -36 4 -74 9 -85 11 -11 2 -40 7 -65 10 -46 5 -375 52 -420 59
-29 5 -318 44 -370 51 -50 6 -136 32 -189 57 -282 130 -440 423 -400 737 4 30
10 78 13 105 4 28 8 61 11 75 2 14 6 45 9 70 3 25 8 65 11 90 3 25 7 61 10 80
2 19 7 60 10 90 5 49 10 76 29 180 27 143 135 303 271 401 124 90 230 123 390
124 66 0 145 -3 175 -8 30 -4 73 -9 95 -12 22 -3 56 -7 75 -10 59 -8 293 -36
335 -41 22 -2 63 -6 90 -9 28 -3 66 -8 85 -10 98 -11 142 -15 215 -21 44 -3
87 -7 96 -9 8 -2 55 -6 105 -10 49 -3 112 -9 139 -11 28 -3 79 -7 115 -9 475
-29 733 -26 890 11 14 3 32 7 40 9 31 7 116 38 150 55 156 80 230 263 231 575
1 185 -20 253 -85 283 -125 59 -161 74 -261 106 -153 49 -378 107 -510 130
-35 6 -185 39 -305 67 -655 151 -1189 357 -1562 602 -128 84 -132 88 -237 178
-175 151 -313 327 -424 540 -54 104 -124 274 -148 359 -7 25 -14 50 -15 55
-17 60 -34 125 -38 145 -31 164 -36 190 -51 325 -18 154 -24 500 -11 635 4 41
9 100 12 130 4 47 20 149 39 254 24 124 94 355 146 476 268 622 776 1056 1489
1270 191 58 419 104 620 125 30 3 69 8 85 10 17 3 80 7 140 11 61 3 111 8 113
9 5 5 690 -4 732 -9z m3192 -2456 c124 -33 215 -110 271 -228 l32 -67 2 -1658
c2 -1775 3 -1709 -46 -1805 -42 -80 -127 -152 -217 -183 -214 -75 -438 37
-512 255 -18 55 -19 114 -19 1707 l0 1650 21 63 c28 82 68 140 133 190 95 74
228 104 335 76z"/>
<path d="M9847 13524 c-1 -1 -62 -5 -136 -9 -74 -4 -143 -9 -154 -11 -10 -2
-45 -6 -78 -9 -33 -4 -68 -8 -77 -10 -9 -1 -37 -6 -62 -9 -196 -30 -418 -93
-595 -169 -400 -172 -684 -463 -831 -854 -34 -90 -91 -313 -99 -388 -3 -33
-10 -87 -15 -120 -9 -63 -6 -525 4 -585 8 -50 15 -99 22 -145 29 -207 128
-462 242 -625 49 -70 193 -216 263 -267 180 -129 444 -259 744 -364 143 -51
466 -146 555 -164 8 -2 42 -10 75 -18 33 -9 94 -23 135 -32 41 -9 84 -18 95
-21 11 -2 34 -7 50 -9 126 -23 406 -91 566 -139 167 -49 414 -150 452 -183 9
-9 17 -13 17 -9 0 9 85 -49 143 -97 147 -124 248 -340 274 -587 14 -123 7
-383 -13 -510 -14 -91 -57 -249 -90 -328 -77 -185 -174 -315 -335 -448 -62
-51 -281 -164 -347 -179 -9 -2 -57 -16 -107 -30 -49 -14 -91 -25 -93 -24 -2 1
-64 -9 -106 -17 -141 -26 -685 -26 -981 1 -22 2 -78 6 -125 10 -47 3 -103 8
-125 10 -22 2 -69 7 -105 10 -92 8 -169 15 -215 20 -22 2 -67 7 -100 10 -33 3
-74 8 -92 10 -17 3 -91 11 -165 20 -155 17 -213 24 -248 30 -14 2 -68 9 -120
15 -52 6 -105 13 -117 15 -26 6 -30 -9 -48 -185 -4 -30 -10 -82 -15 -115 -5
-33 -12 -87 -15 -120 -4 -33 -8 -71 -11 -85 -2 -14 -6 -48 -10 -77 l-5 -51 58
-7 c32 -4 119 -15 193 -26 74 -11 149 -22 165 -24 26 -3 170 -24 285 -41 19
-2 46 -7 60 -9 14 -2 46 -6 73 -10 108 -12 144 -16 177 -21 19 -2 60 -7 90
-10 30 -3 71 -7 90 -9 19 -3 62 -7 95 -10 33 -3 78 -8 101 -11 23 -2 79 -7
125 -10 46 -3 104 -7 129 -9 232 -22 808 -23 925 -1 11 2 47 7 80 10 116 13
328 57 443 92 503 153 852 442 1057 879 58 122 115 289 140 405 2 8 10 47 19
86 8 38 18 92 21 120 3 27 8 58 10 69 13 63 20 217 20 420 0 311 -9 395 -74
655 -30 121 -119 305 -204 420 -123 165 -356 332 -632 452 -38 17 -88 38 -110
48 -46 21 -118 47 -260 94 -206 69 -169 59 -945 250 -750 185 -1098 342 -1250
566 -113 167 -164 373 -164 670 0 121 9 254 18 269 2 3 7 23 10 43 3 20 19 73
36 118 79 217 203 366 402 483 184 109 400 171 708 204 141 15 691 8 880 -12
19 -2 73 -6 120 -10 47 -3 101 -8 120 -10 19 -3 69 -7 110 -10 41 -3 91 -7
110 -10 19 -2 62 -7 95 -10 121 -11 141 -14 185 -19 25 -3 90 -10 145 -16 55
-6 114 -13 130 -15 17 -2 57 -6 90 -10 33 -3 69 -8 80 -10 20 -4 142 -17 179
-19 10 0 20 6 21 14 1 8 5 44 9 80 3 36 9 83 11 105 3 22 7 65 10 95 3 30 8
74 11 98 2 23 6 61 9 85 19 183 20 167 -6 169 -13 0 -28 2 -34 3 -5 1 -37 5
-70 10 -33 5 -62 9 -65 10 -5 1 -111 16 -140 20 -40 5 -127 18 -145 21 -11 2
-40 6 -65 9 -25 3 -56 8 -70 10 -14 3 -52 7 -85 10 -33 4 -71 8 -85 10 -76 11
-242 30 -355 40 -27 2 -72 6 -100 9 -232 22 -544 38 -808 40 -98 1 -179 1
-180 0z"/>
</g>
</svg>
