<svg xmlns="http://www.w3.org/2000/svg" version="1.1" xmlns:xlink="http://www.w3.org/1999/xlink" xmlns:svgjs="http://svgjs.dev/svgjs" width="1000" height="244" viewBox="0 0 1000 244"><g transform="matrix(1,0,0,1,-0.606055008824228,-0.03678294938769966)"><svg viewBox="0 0 396 97" data-background-color="#ffffff" preserveAspectRatio="xMidYMid meet" height="244" width="1000" xmlns="http://www.w3.org/2000/svg" xmlns:xlink="http://www.w3.org/1999/xlink"><g id="tight-bounds" transform="matrix(1,0,0,1,0.23999778349440248,0.014622729879533836)"><svg viewBox="0 0 395.52 96.97075332768077" height="96.97075332768077" width="395.52"><g><svg viewBox="0 0 642.6385169015558 157.55749671654374" height="96.97075332768077" width="395.52"><g transform="matrix(1,0,0,1,247.1185169015558,48.687553416227615)"><svg viewBox="0 0 395.52 60.182389884088515" height="60.182389884088515" width="395.52"><g><svg viewBox="0 0 395.52 60.182389884088515" height="60.182389884088515" width="395.52" id="textblock"><g><svg viewBox="0 0 395.52 60.182389884088515" height="60.182389884088515" width="395.52"><g transform="matrix(1,0,0,1,0,0)"><svg width="395.52" viewBox="1.5499999523162842 -35.5 237.22999572753906 36.099998474121094" height="60.182389884088515" data-palette-color="#332885"><path d="M14.45 0.6L14.45 0.6Q10.05 0.6 6.8-0.85 3.55-2.3 1.55-4.8L1.55-4.8 5.9-9.6Q7.8-7.5 10.08-6.5 12.35-5.5 14.7-5.5L14.7-5.5Q17.4-5.5 18.8-6.7 20.2-7.9 20.2-10.15L20.2-10.15Q20.2-12 19.13-12.95 18.05-13.9 15.5-14.3L15.5-14.3 11.85-14.9Q7.15-15.7 5.05-18.38 2.95-21.05 2.95-24.9L2.95-24.9Q2.95-29.95 6.25-32.73 9.55-35.5 15.5-35.5L15.5-35.5Q19.55-35.5 22.55-34.25 25.55-33 27.4-30.85L27.4-30.85 23.15-26.1Q21.75-27.65 19.85-28.53 17.95-29.4 15.55-29.4L15.55-29.4Q10.5-29.4 10.5-25.25L10.5-25.25Q10.5-23.45 11.63-22.55 12.75-21.65 15.3-21.2L15.3-21.2 18.95-20.55Q23.2-19.8 25.5-17.35 27.8-14.9 27.8-10.75L27.8-10.75Q27.8-8.3 26.95-6.23 26.1-4.15 24.4-2.63 22.7-1.1 20.23-0.25 17.75 0.6 14.45 0.6ZM56.25 0L33.75 0 33.75-5.55 41.25-5.55 41.25-29.35 33.75-29.35 33.75-34.9 56.25-34.9 56.25-29.35 48.75-29.35 48.75-5.55 56.25-5.55 56.25 0ZM80.55 0L80.55-4.95 80.09-4.95Q79.65-3.85 79-2.85 78.34-1.85 77.4-1.07 76.45-0.3 75.17 0.15 73.9 0.6 72.3 0.6L72.3 0.6Q69.75 0.6 67.77-0.6 65.8-1.8 64.45-4.1 63.1-6.4 62.42-9.7 61.75-13 61.75-17.15L61.75-17.15Q61.75-26.05 65-30.78 68.25-35.5 75.05-35.5L75.05-35.5Q77.75-35.5 79.8-34.77 81.84-34.05 83.32-32.73 84.8-31.4 85.75-29.55 86.7-27.7 87.25-25.45L87.25-25.45 80.25-23.75Q79.95-24.85 79.57-25.88 79.2-26.9 78.59-27.7 78-28.5 77.09-28.98 76.2-29.45 74.9-29.45L74.9-29.45Q72.05-29.45 70.87-27.1 69.7-24.75 69.7-20.5L69.7-20.5 69.7-14.8Q69.7-10.55 70.97-8 72.25-5.45 75.5-5.45L75.5-5.45Q78.05-5.45 79.3-6.95 80.55-8.45 80.55-10.8L80.55-10.8 80.55-13.35 74.59-13.35 74.59-18.65 87.25-18.65 87.25 0 80.55 0ZM111.54 0L111.54-15.55 111.94-25.3 111.49-25.3 104.99-7.35 98.49-25.3 98.04-25.3 98.44-15.55 98.44 0 91.94 0 91.94-34.9 100.79-34.9 105.09-23.15 105.49-23.15 109.79-34.9 118.04-34.9 118.04 0 111.54 0ZM149.74 0L141.74 0 139.54-8.4 129.99-8.4 127.84 0 120.24 0 129.69-34.9 140.29-34.9 149.74 0ZM138.39-14.45L134.99-27.65 134.59-27.65 131.19-14.45 138.39-14.45ZM167.94 0L159.99-23.2 159.44-23.2 159.44 0 153.04 0 153.04-34.9 162.04-34.9 169.99-11.7 170.54-11.7 170.54-34.9 176.94-34.9 176.94 0 167.94 0ZM206.24 0L183.74 0 183.74-5.55 191.24-5.55 191.24-29.35 183.74-29.35 183.74-34.9 206.24-34.9 206.24-29.35 198.74-29.35 198.74-5.55 206.24-5.55 206.24 0ZM238.78-28.75L228.73-28.75 228.73 0 221.23 0 221.23-28.75 211.18-28.75 211.18-34.9 238.78-34.9 238.78-28.75Z" opacity="1" transform="matrix(1,0,0,1,0,0)" fill="#000000" class="undefined-text-0" data-fill-palette-color="primary" id="text-0"></path></svg></g></svg></g></svg></g></svg></g><g><svg viewBox="0 0 232.91089902727973 157.55749671654374" height="157.55749671654374" width="232.91089902727973"><g><svg xmlns="http://www.w3.org/2000/svg" xmlns:xlink="http://www.w3.org/1999/xlink" version="1.1" viewBox="2.0004446506500244 16.88199806213379 91.99801635742188 62.23400115966797" x="0" y="0" height="157.55749671654374" width="232.91089902727973" class="icon-icon-0" data-fill-palette-color="accent" id="icon-0"><path d="M50 79.116c-0.356 0-0.716-0.092-1.032-0.288l-24-14.556c-0.604-0.364-0.968-1.016-0.968-1.708v-29.116c0-0.7 0.364-1.348 0.96-1.712l24-14.56c0.64-0.392 1.436-0.392 2.076 0l24 14.56c0.604 0.364 0.964 1.012 0.964 1.712v29.116c0 0.696-0.36 1.344-0.96 1.712l-24 14.556c-0.32 0.192-0.68 0.284-1.04 0.284zM28 61.436l22 13.336 22-13.336v-26.864l-22-13.344-22 13.344v26.864z" fill="#000000" data-fill-palette-color="accent"></path><path d="M74 35.448c-0.648 0-1.28-0.316-1.664-0.896-0.608-0.92-0.36-2.164 0.564-2.772l18-11.916c0.92-0.612 2.156-0.352 2.772 0.572 0.6 0.916 0.352 2.164-0.572 2.764l-18 11.916c-0.336 0.224-0.716 0.332-1.1 0.332z" fill="#000000" data-fill-palette-color="accent"></path><path d="M4 79.116c-0.648 0-1.28-0.32-1.668-0.9-0.604-0.92-0.356-2.164 0.568-2.772l22-14.556c0.916-0.616 2.164-0.352 2.768 0.572 0.604 0.916 0.356 2.156-0.568 2.764l-22 14.556c-0.332 0.236-0.716 0.336-1.1 0.336z" fill="#000000" data-fill-palette-color="accent"></path><path d="M24.844 35.448c-0.34 0-0.68-0.084-0.992-0.26l-20.844-11.912c-0.96-0.552-1.288-1.772-0.748-2.732 0.556-0.96 1.772-1.284 2.736-0.752l20.844 11.916c0.96 0.552 1.292 1.768 0.748 2.732-0.376 0.644-1.052 1.008-1.744 1.008z" fill="#000000" data-fill-palette-color="accent"></path><path d="M66 59.116c-1.1 0-2-0.9-2-2v-16c0-1.1 0.9-2 2-2s2 0.9 2 2v16c0 1.104-0.9 2-2 2z" fill="#000000" data-fill-palette-color="accent"></path></svg></g></svg></g></svg></g><defs></defs></svg><rect width="395.52" height="96.97075332768077" fill="none" stroke="none" visibility="hidden"></rect></g></svg></g></svg>